<svg xmlns="http://www.w3.org/2000/svg" width="487" height="320" fill="none" viewBox="0 0 487 320"><path fill="#FFAC4D" d="M0 0h487v320H0z"/><path stroke="#141414" stroke-dasharray="4 4" d="M245.538 77.049c1.348.065 2.679.197 3.989.39l-.072.493c1.316.193 2.612.45 3.884.768l.12-.483c1.304.326 2.584.714 3.835 1.162l-.167.469c1.248.446 2.468.953 3.656 1.515l.213-.45a40.722 40.722 0 0 1 3.532 1.892l-.256.427a40.41 40.41 0 0 1 3.29 2.203l.296-.4a40.963 40.963 0 0 1 3.098 2.541v.001l-.335.371a40.607 40.607 0 0 1 2.799 2.8l.369-.337a41.12 41.12 0 0 1 2.544 3.098l-.399.297a40.617 40.617 0 0 1 2.202 3.29l.426-.257a40.776 40.776 0 0 1 1.891 3.533l-.449.213a40.155 40.155 0 0 1 1.517 3.656l.466-.168a40.336 40.336 0 0 1 1.163 3.835l-.482.121c.317 1.272.575 2.567.769 3.883l.492-.072c.193 1.31.323 2.641.388 3.989l-.497.025a40.561 40.561 0 0 1 0 3.959l.497.024a41.184 41.184 0 0 1-.388 3.989l-.492-.072a40.468 40.468 0 0 1-.769 3.884l.482.12a40.331 40.331 0 0 1-1.162 3.835l-.467-.167a40.155 40.155 0 0 1-1.517 3.656l.449.212a40.771 40.771 0 0 1-1.891 3.532l-.426-.255a40.425 40.425 0 0 1-2.202 3.289l.399.297a41.073 41.073 0 0 1-2.543 3.098l-.37-.335a40.608 40.608 0 0 1-2.799 2.799l.335.37a41.073 41.073 0 0 1-3.098 2.543l-.296-.4a40.368 40.368 0 0 1-3.29 2.203l.255.425a40.634 40.634 0 0 1-3.532 1.892l-.212-.449a39.865 39.865 0 0 1-3.656 1.516l.167.468a40.535 40.535 0 0 1-3.835 1.162l-.12-.482a40.161 40.161 0 0 1-3.884.768l.072.493c-1.31.192-2.641.323-3.989.388l-.023-.497a40.674 40.674 0 0 1-3.96 0l-.025.497a41.214 41.214 0 0 1-3.989-.388l.072-.493a40.141 40.141 0 0 1-3.883-.768l-.121.482a40.629 40.629 0 0 1-3.835-1.163l.168-.467a39.865 39.865 0 0 1-3.656-1.516l-.213.449a40.672 40.672 0 0 1-3.533-1.892l.257-.425a40.628 40.628 0 0 1-3.29-2.203l-.297.4a41.286 41.286 0 0 1-3.098-2.544l.336-.369a40.608 40.608 0 0 1-2.799-2.799l-.372.335a41.06 41.06 0 0 1-2.542-3.098l.401-.297a40.167 40.167 0 0 1-2.202-3.289l-.428.256a40.78 40.78 0 0 1-1.892-3.532l.45-.213a40.428 40.428 0 0 1-1.515-3.656l-.469.167a40.624 40.624 0 0 1-1.162-3.835l.483-.12a40.161 40.161 0 0 1-.768-3.884l-.493.072a40.871 40.871 0 0 1-.39-3.989l.499-.024a40.305 40.305 0 0 1-.036-.987l-.012-.993c0-.664.016-1.324.048-1.979l-.499-.025c.065-1.348.197-2.679.39-3.989l.493.072c.193-1.316.451-2.611.768-3.883l-.483-.121a40.643 40.643 0 0 1 1.162-3.836l.469.169a40.428 40.428 0 0 1 1.515-3.656l-.45-.214a40.767 40.767 0 0 1 1.892-3.532l.428.257a40.357 40.357 0 0 1 2.202-3.29l-.401-.297a41.128 41.128 0 0 1 2.543-3.098l.371.336a40.607 40.607 0 0 1 2.799-2.799l-.336-.37a41.198 41.198 0 0 1 3.098-2.544l.297.4a40.41 40.41 0 0 1 3.29-2.202l-.257-.427a40.722 40.722 0 0 1 3.532-1.892l.214.45a40.088 40.088 0 0 1 3.656-1.515l-.169-.47a40.614 40.614 0 0 1 3.836-1.161l.121.483a40.173 40.173 0 0 1 3.883-.768l-.072-.493a41.026 41.026 0 0 1 3.989-.39l.025.499a40.943 40.943 0 0 1 3.96 0l.023-.5Z"/><path stroke="#1E1E1E" stroke-width="1.2" d="m313.065 172.833-69.532-69.532-69.532 69.532 69.532 69.532 69.532-69.532Z"/></svg>