<svg xmlns="http://www.w3.org/2000/svg" width="487" height="320" fill="none" viewBox="0 0 487 320"><path fill="#4DA0FF" d="M0 0h487v320H0z"/><path stroke="#141414" stroke-dasharray="4 4" d="M176.944 87v.5h3.963V87h3.963v.5h3.963V87h3.963v.5h3.963V87h3.962v.5h3.963V87h3.962v.5h3.963V87h3.963v.5h3.963V87h3.963v.5h3.963V87h3.963v.5h3.963V87h3.963v.5h3.962V87h3.963v.5h3.962V87h3.963v.5h3.963V87h3.963v.5h3.963V87h3.963v.5h3.963V87h3.963v.5h1.481v1.481h.5v3.963h-.5v3.963h.5v3.963h-.5v3.963h.5v3.963h-.5v3.963h.5v3.962h-.5v3.963h.5v3.962h-.5v3.963h.5v3.963h-.5v3.963h.5v3.963h-.5v3.963h.5v3.963h-.5v3.963h.5v3.963h-.5v3.962h.5v3.963h-.5v3.962h.5v3.963h-.5v3.963h.5v3.963h-.5v3.963h.5v3.963h-.5v3.963h.5v3.963h-.5v1.481h-1.481v.5h-3.963v-.5h-3.963v.5h-3.963v-.5h-3.963v.5h-3.963v-.5H256.2v.5h-3.963v-.5h-3.962v.5h-3.963v-.5h-3.962v.5h-3.963v-.5h-3.963v.5h-3.963v-.5h-3.963v.5h-3.963v-.5h-3.963v.5h-3.963v-.5h-3.963v.5h-3.962v-.5h-3.963v.5h-3.962v-.5h-3.963v.5h-3.963v-.5h-3.963v.5h-3.963v-.5h-3.963v.5h-3.963v-.5H171.5v-1.481h-.5v-3.963h.5v-3.963h-.5v-3.963h.5v-3.963h-.5v-3.963h.5V172.2h-.5v-3.963h.5v-3.962h-.5v-3.963h.5v-3.962h-.5v-3.963h.5v-3.963h-.5v-3.963h.5v-3.963h-.5v-3.963h.5v-3.963h-.5v-3.963h.5v-3.963h-.5v-3.962h.5v-3.963h-.5v-3.962h.5v-3.963h-.5v-3.963h.5v-3.963h-.5v-3.963h.5v-3.963h-.5v-3.963h.5V87.5h1.481V87h3.963Z"/><path stroke="#1E1E1E" stroke-width="1.2" d="M316.891 121.932H205.932V232.89h110.959V121.932ZM205.932 121.932l76.027 76.027"/></svg>