<svg fill="none" height="46" viewBox="0 0 46 46" width="46" xmlns="http://www.w3.org/2000/svg"><rect fill="#c94dff" height="46" rx="8" width="46"/><g stroke="#141414" stroke-linecap="round" stroke-linejoin="round" stroke-width="1.5"><path d="m29.9974 13.666h-14c-1.2887 0-2.3333 1.0447-2.3333 2.3333v14c0 1.2887 1.0446 2.3334 2.3333 2.3334h14c1.2887 0 2.3333-1.0447 2.3333-2.3334v-14c0-1.2886-1.0446-2.3333-2.3333-2.3333z"/><path d="m25.3333 19.5h-4.6666c-.6444 0-1.1667.5223-1.1667 1.1667v4.6666c0 .6444.5223 1.1667 1.1667 1.1667h4.6666c.6444 0 1.1667-.5223 1.1667-1.1667v-4.6666c0-.6444-.5223-1.1667-1.1667-1.1667z"/><path d="m26.5 11.334v2.3333"/><path d="m26.5 32.334v2.3333"/><path d="m11.3359 26.5h2.3334"/><path d="m11.3359 19.5h2.3334"/><path d="m32.3359 26.5h2.3334"/><path d="m32.3359 19.5h2.3334"/><path d="m19.5 11.334v2.3333"/><path d="m19.5 32.334v2.3333"/></g></svg>