<svg fill="none" height="24" viewBox="0 0 24 24" width="24" xmlns="http://www.w3.org/2000/svg"><path d="m1.5.5c.55228 0 1 .447715 1 1v18.667c.00009.3535.14065.6924.39062.9424.24998.2499.58888.3905.94239.3906h18.66699l.1025.0049c.5042.0513.8975.4774.8975.9951s-.3933.9438-.8975.9951l-.1025.0049h-18.66699c-.88394-.0001-1.7314-.3515-2.35645-.9766-.625042-.625-.976474-1.4725-.97656-2.3564v-18.667c0-.552285.447715-1 1-1zm18.0332 7.22461c.3928-.32035.9718-.29776 1.3379.06836.3661.36611.3887.94512.0684 1.33789l-.0684.07617-5.833 5.83297c-.1875.1875-.4419.2929-.707.293-.2653 0-.5195-.1054-.7071-.293l-3.95994-3.9599-2.79297 2.7939c-.39048.3903-1.02358.3903-1.41406 0-.39047-.3904-.39036-1.0235 0-1.414l3.5-3.50004.07324-.06641c.17799-.14591.40163-.22656.63379-.22656.26522 0 .51954.10543.70704.29297l3.959 3.95894 5.1269-5.12593z" fill="#fff"/></svg>