<svg fill="none" height="46" viewBox="0 0 46 46" width="46" xmlns="http://www.w3.org/2000/svg"><rect fill="#ffac4d" fill-opacity=".3" height="46" rx="8" width="46"/><g stroke="#ffac4d" stroke-linecap="round" stroke-linejoin="round" stroke-width="1.5"><path d="m32.3307 24.1659c0 5.8333-4.0833 8.75-8.9366 10.4417-.2542.0861-.5302.082-.7817-.0117-4.865-1.68-8.9483-4.5967-8.9483-10.43v-8.1667c0-.3094.1229-.6061.3417-.8249s.5155-.3417.8249-.3417c2.3334 0 5.25-1.4 7.28-3.1734.2472-.2111.5616-.3272.8867-.3272s.6395.1161.8867.3272c2.0416 1.785 4.9466 3.1734 7.28 3.1734.3094 0 .6061.1229.8249.3417s.3417.5155.3417.8249z"/><path d="m19.5 22.9993 2.3333 2.3334 4.6667-4.6667"/></g></svg>