<svg fill="none" height="52" viewBox="0 0 53 52" width="53" xmlns="http://www.w3.org/2000/svg"><rect fill="#c94dff" fill-opacity=".2" height="52" rx="8" width="52" x=".333984"/><g stroke="#c94dff" stroke-linecap="round" stroke-linejoin="round" stroke-width="2"><path d="m26.334 21.334c5.799 0 10.5-1.567 10.5-3.5s-4.701-3.5-10.5-3.5-10.5 1.567-10.5 3.5 4.701 3.5 10.5 3.5z"/><path d="m15.8341 17.834v16.3333c-.0065.5611.3917 1.1145 1.1612 1.6135.7694.499 1.8875.9291 3.26 1.2539s2.9591.5349 4.6262.6125c1.667.0776 3.3656.0205 4.9526-.1665"/><path d="m36.834 17.834v3.5"/><path d="m36.834 26-3.5 5.8333h4.6667l-3.5 5.8334"/><path d="m15.834 26c.0017.5455.3858 1.0832 1.1217 1.5704s1.8032.9103 3.1167 1.2356c1.3136.3252 2.837.5437 4.4488.6378 1.6118.0942 3.2673.0615 4.8345-.0955"/></g></svg>