<svg fill="none" height="46" viewBox="0 0 46 46" width="46" xmlns="http://www.w3.org/2000/svg"><rect fill="#f32c01" fill-opacity=".15" height="46" rx="8" width="46"/><g stroke="#f32c01" stroke-linecap="round" stroke-linejoin="round" stroke-width="1.5"><path d="m27.2999 26.5007c-.6488 3.0682-2.1376 5.8956-4.3003 8.1666-2.9958-3.1455-4.6667-7.3228-4.6667-11.6666 0-4.3439 1.6709-8.5212 4.6667-11.6667-2.1562.0005-4.27.5986-6.1068 1.7278-1.8369 1.1292-3.3249 2.7453-4.2988 4.6689-.974 1.9237-1.3958 4.0796-1.2186 6.2285.1771 2.1488.9463 4.2066 2.2221 5.9448 1.2759 1.7382 3.0084 3.0888 5.0054 3.9019 1.9969.8131 4.1802 1.057 6.3073.7044 2.1271-.3525 4.115-1.2877 5.7428-2.7016 1.6279-1.4139 2.8321-3.2512 3.4789-5.308"/><path d="m11.3359 23h9.9167"/><path d="m32.3307 16.0007v-2.3334c0-.6188-.2458-1.2123-.6834-1.6499s-1.0311-.6834-1.6499-.6834-1.2123.2458-1.6499.6834-.6834 1.0311-.6834 1.6499v2.3334"/><path d="m33.5026 16h-7c-.6443 0-1.1667.5223-1.1667 1.1667v3.5c0 .6443.5224 1.1666 1.1667 1.1666h7c.6443 0 1.1667-.5223 1.1667-1.1666v-3.5c0-.6444-.5224-1.1667-1.1667-1.1667z"/></g></svg>