<svg fill="none" height="46" viewBox="0 0 46 46" width="46" xmlns="http://www.w3.org/2000/svg"><rect fill="#c94dff" height="46" rx="8" width="46"/><path d="m26.498 10.584a.75.75 0 0 1 .75.75v1.584h2.747a3.084 3.084 0 0 1 3.085 3.082v2.75h1.588l.077.004a.75.75 0 0 1 0 1.493l-.077.003h-1.588v5.5h1.588l.077.004a.75.75 0 0 1 0 1.493l-.077.003h-1.588v2.75a3.085 3.085 0 0 1 -3.084 3.084h-2.747v1.582a.75.75 0 1 1 -1.5 0v-1.581h-5.5v1.581a.75.75 0 1 1 -1.5 0v-1.581h-2.753a3.084 3.084 0 0 1 -3.084-3.085v-2.75h-1.578a.75.75 0 0 1 0-1.5h1.578v-5.5h-1.578a.75.75 0 0 1 0-1.5h1.578v-2.75a3.083 3.083 0 0 1 3.083-3.082h2.753v-1.584a.75.75 0 0 1 1.5 0v1.584h5.5v-1.584a.75.75 0 0 1 .75-.75zm-10.503 3.834c-.874 0-1.583.708-1.583 1.582v3.448c.001.017.005.035.005.052s-.004.034-.005.05v6.9c.001.017.005.033.005.05s-.004.034-.005.05v3.45c0 .875.709 1.584 1.583 1.584h14c.874 0 1.584-.71 1.584-1.584v-14c0-.874-.71-1.582-1.584-1.582zm9.336 4.332c1.059 0 1.917.859 1.917 1.918v4.666a1.917 1.917 0 0 1 -1.917 1.916h-4.666a1.917 1.917 0 0 1 -1.917-1.916v-4.666c0-1.06.858-1.918 1.917-1.918zm-4.666 1.5a.417.417 0 0 0 -.417.418v4.666c0 .23.187.416.417.416h4.666c.23 0 .417-.186.417-.416v-4.666a.417.417 0 0 0 -.417-.418z" fill="#141414"/></svg>