<svg xmlns="http://www.w3.org/2000/svg" width="46" height="46" fill="none" viewBox="0 0 46 46"><rect width="46" height="46" fill="#FFAC4D" rx="8"/><path fill="#141414" d="M22.999 10.582c.44 0 .869.137 1.226.391l.148.115.007.006.376.316c1.922 1.55 4.45 2.672 6.41 2.672a1.917 1.917 0 0 1 1.917 1.916v8.168c0 3.114-1.1 5.488-2.861 7.296-1.742 1.787-4.1 2.988-6.58 3.853l-.005.003c-.412.14-.86.133-1.268-.015v.001c-2.486-.859-4.846-2.057-6.59-3.843-1.764-1.806-2.863-4.181-2.863-7.295v-8.168a1.918 1.918 0 0 1 1.917-1.915l.4-.016c2.03-.148 4.56-1.378 6.386-2.973l.006-.006.487.57-.486-.57c.383-.327.87-.506 1.373-.506Zm0 1.5a.616.616 0 0 0-.4.147c-2.045 1.785-5.001 3.258-7.524 3.349l-.242.005a.417.417 0 0 0-.417.415v8.168c0 2.718.943 4.718 2.436 6.247 1.42 1.454 3.367 2.513 5.564 3.316l.443.157.017.006.07.02c.069.013.141.008.21-.015 2.37-.827 4.48-1.93 5.992-3.481 1.492-1.532 2.435-3.532 2.435-6.25v-8.168a.417.417 0 0 0-.417-.415c-2.573 0-5.643-1.5-7.768-3.355a.616.616 0 0 0-.399-.146Zm3.03 8.001a.75.75 0 0 1 1.055 1.056l-.052.057-4.667 4.667a.75.75 0 0 1-1.003.05l-.057-.05-2.333-2.334-.052-.057a.75.75 0 0 1 1.056-1.055l.056.051 1.803 1.803 4.137-4.136.056-.052Z"/></svg>