<svg fill="none" height="32" viewBox="0 0 32 32" width="32" xmlns="http://www.w3.org/2000/svg"><path d="m28.333 19a2.003 2.003 0 0 1 2 2v5a2 2 0 0 1 -2 2h-1.465l-2 3-1.664-1.11 2.594-3.89h2.535v-5h-9v5h3v2h-3a2 2 0 0 1 -2-2v-5a2.003 2.003 0 0 1 2-2zm-23 2c0 2.757 2.243 5 5 5h2v2h-2c-3.86 0-7-3.14-7-7v-2h2zm3.52-19c.61 0 1.179.273 1.561.75l2.524 3.686c.239.293.395.736.395 1.189v6.375c0 1.102-.897 2-2 2h-7c-1.103 0-2-.898-2-2v-10c0-1.103.897-2 2-2zm13.48 2c3.86 0 7 3.14 7 7v4h-2v-4c0-2.757-2.243-5-5-5h-3v-2zm-18 0v10h7v-6h-2a1 1 0 0 1 -1-1v-3zm5 8h-3v-2h3z" fill="#f32c01"/></svg>