<svg fill="none" height="46" viewBox="0 0 46 46" width="46" xmlns="http://www.w3.org/2000/svg"><rect fill="#4da0ff" height="46" rx="8" width="46"/><path d="m23.108 10.592a.75.75 0 0 1 .433 1.26 16.167 16.167 0 0 0 -4.442 10.398h2.152l.076.004a.75.75 0 0 1 0 1.492l-.076.004h-2.152c.167 3.61 1.54 7.06 3.896 9.798a16.166 16.166 0 0 0 3.57-7.202.75.75 0 1 1 1.466.31 17.666 17.666 0 0 1 -3.285 7.12c.013-.003.026-.003.04-.006a10.92 10.92 0 0 0 8.628-7.495.75.75 0 0 1 1.432.45 12.42 12.42 0 0 1 -9.815 8.525c-.667.11-1.34.164-2.011.165l-.022.002-.016-.001a12.415 12.415 0 0 1 -9.99-5.068 12.42 12.42 0 0 1 -2.407-7.318l-.001-.03.001-.038a12.416 12.416 0 0 1 12.412-12.379zm-10.987 13.306a10.918 10.918 0 0 0 6.763 9.213c.763.311 1.556.531 2.362.662a17.668 17.668 0 0 1 -3.648-10.023h-5.488l.01.148zm18.027-13.31a3.084 3.084 0 0 1 2.931 3.079v1.583h.422c1.058 0 1.916.859 1.916 1.917v3.5a1.916 1.916 0 0 1 -1.916 1.916h-7a1.917 1.917 0 0 1 -1.917-1.916v-3.5c0-1.059.858-1.917 1.917-1.917h.411v-1.583a3.084 3.084 0 0 1 3.083-3.084zm-8.9 1.639a10.918 10.918 0 0 0 -7.987 5.842 10.913 10.913 0 0 0 -1.149 4.181h5.486a17.666 17.666 0 0 1 3.65-10.023zm5.252 4.523a.417.417 0 0 0 -.417.417v3.5c0 .23.187.416.417.416h7c.23 0 .416-.186.416-.416v-3.5a.417.417 0 0 0 -.416-.417h-1.152l-.02.001-.02-.001h-4.627l-.02.001-.02-.001zm3.494-4.666a1.583 1.583 0 0 0 -1.583 1.583v1.583h3.167v-1.583a1.585 1.585 0 0 0 -1.427-1.575z" fill="#141414"/></svg>