<svg fill="none" height="25" viewBox="0 0 26 25" width="26" xmlns="http://www.w3.org/2000/svg"><path d="m11.9385 1.50487c.504.05131.8972.47765.8974.99511 0 .51766-.3933.94377-.8974.99512l-.1026.00488h-8.16695c-.3534.00009-.69244.1408-.94239.39063-.24986.24986-.39041.58905-.39062.94238v11.66701c0 .3534.14082.6924.39062.9424.24997.2499.58888.3905.94239.3906h18.66695c.3537 0 .6924-.1406.9424-.3906.2499-.2501.3906-.5889.3906-.9424v-2.333c.0003-.552.4481-.9998 1-1 .5522 0 .9998.4479 1 1v2.333c0 .8839-.3506 1.7323-.9755 2.3574-.6252.6251-1.4734.9756-2.3575.9756h-8.3359v2.667h3.6689l.1026.0049c.5041.0511.8972.4775.8974.9951 0 .5178-.3932.9439-.8974.9951l-.1026.0049h-4.6513c-.0059.0001-.0117.001-.0176.001s-.0117-.0009-.0176-.001h-4.64646c-.55229 0-1-.4477-1-1 .00025-.5521.44787-1 1-1h3.66406v-2.667h-8.33105c-.88379-.0001-1.73144-.3508-2.35645-.9756-.624974-.6251-.976562-1.4735-.976562-2.3574v-11.66701c.000211-.88377.351629-1.73151.976562-2.35644.62502-.6249 1.47262-.97648 2.35645-.97657h8.16695zm8.9414-.31836c.2514-.440361.8011-.62736 1.2744-.416995.4731.210325.702.743045.5439 1.224605l-.0361.09571-.0957.21484c.4392.30553.821.68711 1.127 1.12598l.2158-.09473c.5045-.2241 1.0959.00351 1.3203.50781.2243.50463-.0033 1.09595-.5078 1.32032l-.2793.12304c.037.23226.0576.47022.0576.71289 0 .24213-.0198.48015-.0566.71192l.2783.12402.0918.0459c.4398.25155.626.80139.416 1.27441-.2104.47309-.743.70206-1.2246.54395l-.0957-.03613-.2149-.09571c-.306.43945-.6883.82107-1.1279 1.12696l.0957.21484.0361.09566c.1581.4816-.0709 1.0142-.5439 1.2247-.4731.2102-1.0228.0239-1.2744-.4161l-.0459-.0918-.124-.2793c-.2314.0367-.4684.0567-.71.0567-.2423 0-.48-.0198-.7119-.0567l-.124.2793c-.2243.5047-.8157.7322-1.3203.5079-.5046-.2244-.7321-.8158-.5079-1.32036l.0957-.21582c-.4395-.3062-.822-.68813-1.1279-1.12793l-.2178.09766c-.5046.22425-1.0959-.00322-1.3203-.50782-.224-.50458.0033-1.09605.5078-1.32031l.2823-.12598c-.0366-.23111-.0557-.46855-.0557-.70996 0-.2419.0189-.47938.0557-.71093l-.2823-.125-.0908-.04688c-.4399-.25161-.6272-.80032-.417-1.27344.2104-.47285.7432-.70185 1.2246-.54394l.0957.03613.2188.09668c.3058-.43921.6878-.82111 1.1269-1.12695l-.0957-.21582-.0361-.09571c-.1579-.48155.0709-1.01434.544-1.224605.4731-.21022 1.0218-.022956 1.2734.416995l.0469.09082.124.27929c.2319-.03685.4696-.05664.7119-.05664.2413 0 .478.02008.709.05664l.125-.27929zm-.8799 2.31347c-1.3806 0-2.4997 1.11951-2.5 2.5 0 1.38072 1.1193 2.5 2.5 2.5s2.5-1.11928 2.5-2.5c-.0003-1.38049-1.1194-2.5-2.5-2.5z" fill="#c94dff"/></svg>