<svg fill="none" height="26" viewBox="0 0 26 26" width="26" xmlns="http://www.w3.org/2000/svg"><path d="m5.99605 16.6534c.81822.0253 1.60072.3331 2.21583.8681l.12109.1104.01172.0117c1.31976 1.3031 1.30554 3.3998.16699 4.749l.00098.001c-.49519.5893-1.18393 1.028-1.8584 1.3574-.686.3351-1.42887.5914-2.09961.7832-.67389.1928-1.2962.3271-1.74902.4131-.22708.0431-.41395.074-.54493.0948-.06531.0103-.11705.0181-.15332.0234-.01811.0026-.03277.0054-.04297.0068-.00476.0007-.00878.0006-.01171.001-.00144.0002-.00294.0008-.00391.001h-.00195c-.30885.0413-.61952-.0639-.83985-.2842-.220051-.2202-.325286-.5303-.284177-.8389l.991207.1319-.991207-.1328v-.002c.000202-.0009.000806-.0027.000976-.0039.000423-.0029.001302-.007.001953-.0117.001415-.0102.003248-.025.00586-.043.005278-.0363.013109-.0882.023437-.1533.020749-.1309.051681-.3172.094731-.544.08598-.4528.22031-1.076.41308-1.75.19187-.6706.44818-1.4136.7832-2.0996.32917-.6738.76796-1.3613 1.35645-1.8564v-.001c.66781-.5627 1.52069-.859 2.39355-.832zm18.77835-16.314469c.5017.053766.8923.478827.8926.994139 0 3.26357-.9194 8.95703-6.8506 13.25003.1042.4239.2302 1.0104.3144 1.664.0844.6546.1316 1.4034.0635 2.1368-.0674.7246-.2539 1.5085-.6953 2.1709l-.001.0019c-.7597 1.1356-2.2071 1.807-3.248 2.1846-.5539.2009-1.0665.344-1.4395.4365-.1871.0464-.3412.0805-.4502.1035-.0545.0115-.0981.0204-.1289.0264-.0151.0029-.0273.0052-.0361.0068-.0043.0008-.008.0015-.0108.002-.0013.0002-.0029.0008-.0039.0009h-.0019c-.2916.053-.5918-.0259-.8194-.2158-.2275-.1899-.3592-.4712-.3593-.7676v-5.4199l-2.9141-2.914h-5.42188c-.29647 0-.57758-.1318-.76757-.3594-.18981-.2276-.26973-.5278-.2168-.8193l.98437.1787c-.90687-.1647-.97788-.1775-.98339-.1787v-.002c.00021-.001.00074-.0027.00097-.0039.0005-.0027.00119-.0067.00195-.0107.00167-.0089.00391-.0212.00684-.0362.00601-.0307.0149-.0745.02637-.1289.02298-.109.05713-.2632.10351-.4502.09253-.373.23469-.8857.43555-1.4394.3776-1.04096 1.0499-2.48838 2.18555-3.24808l.00097-.00098.25391-.15332c.6036-.33238 1.28286-.48204 1.91699-.54102.73344-.06816 1.48305-.02186 2.1377.0625.65846.08488 1.24926.21172 1.67386.31641.0026.00064.0052.00132.0078.00195 1.4061-2.01472 3.2579-3.68359 5.417-4.87109 2.3957-1.317608 5.0891-2.000353 7.8232-1.983398zm-18.84085 18.313469c-.37997-.0116-.75125.1174-1.04199.3623l-.00097.001c-.28537.2397-.5757.6483-.84766 1.2051-.2663.5452-.48459 1.1689-.65723 1.7724-.08328.2912-.15549.5731-.21582.833.26031-.0604.54324-.1314.83496-.2148.60355-.1727 1.22721-.3909 1.77246-.6572.55658-.272.96444-.5624 1.20411-.8477l.00195-.0019.09082-.1182c.41832-.6041.35574-1.4327-.13184-1.917-.27396-.257-.633-.4054-1.00879-.417zm11.08595-2.9355c-.9752.5493-1.9835 1.0381-3.0195 1.4629v3.8691c.1798-.0551.372-.1163.5683-.1875 1.0093-.3662 1.8958-.8612 2.2676-1.417.1877-.2824.3155-.7002.3662-1.2451.0499-.5374.0184-1.129-.0547-1.6963-.0358-.2777-.0807-.5434-.1279-.7861zm6.6094-13.35062c-2.0352.13736-4.0209.71613-5.8155 1.70312-1.9656 1.08114-3.6413 2.61718-4.8886 4.47656l-.2432.37598-.0059.00879c-.7781 1.21537-1.449 2.49647-2.0029 3.82817l2.5703 2.5703c1.3475-.5525 2.644-1.223 3.876-2.001 5.0923-3.41936 6.3068-7.91853 6.5098-10.96192zm-15.83011 6.43164c-.54528.05068-.9636.17833-1.24609.36621l.00097.00097c-.55587.37186-1.05083 1.2582-1.41699 2.2676-.07113.1961-.13346.3877-.18848.5674h3.87598c.43-1.0351.92402-2.04222 1.48042-3.01468-.249-.04898-.52276-.09586-.80952-.13282-.56737-.07312-1.15885-.10462-1.69629-.05468z" fill="#ffac4d"/></svg>